<mxfile host="app.diagrams.net" modified="2021-07-04T08:52:07.390Z" agent="5.0 (Windows NT 10.0; Win64; x64) AppleWebKit/537.36 (KHTML, like Gecko) Chrome/91.0.4472.124 Safari/537.36" etag="7vifGwM77Eddqbq059Bc" version="14.8.2" type="github">
  <diagram id="tCX9CxWUluYrnIilAXg2" name="Page-1">
    <mxGraphModel dx="782" dy="436" grid="1" gridSize="10" guides="1" tooltips="1" connect="1" arrows="1" fold="1" page="1" pageScale="1" pageWidth="850" pageHeight="1100" math="0" shadow="0">
      <root>
        <mxCell id="0" />
        <mxCell id="1" parent="0" />
        <mxCell id="-Q6tTrRomLp7Bxmf9_0d-1" value="&lt;font face=&quot;B Zar&quot; style=&quot;font-size: 13px&quot;&gt;کاربر&lt;/font&gt;" style="shape=umlActor;verticalLabelPosition=bottom;verticalAlign=top;html=1;outlineConnect=0;" parent="1" vertex="1">
          <mxGeometry x="130" y="110" width="30" height="60" as="geometry" />
        </mxCell>
        <mxCell id="-Q6tTrRomLp7Bxmf9_0d-2" value="&lt;font face=&quot;B Zar&quot; style=&quot;font-size: 13px&quot;&gt;سیستم&lt;br&gt;&amp;nbsp;(صفحه نمایش)&lt;/font&gt;" style="rounded=0;whiteSpace=wrap;html=1;fillColor=#BFBFBF;" parent="1" vertex="1">
          <mxGeometry x="410" y="110" width="120" height="60" as="geometry" />
        </mxCell>
        <mxCell id="-Q6tTrRomLp7Bxmf9_0d-3" value="" style="endArrow=none;html=1;strokeColor=#28408E;" parent="1" edge="1">
          <mxGeometry width="50" height="50" relative="1" as="geometry">
            <mxPoint x="180" y="140" as="sourcePoint" />
            <mxPoint x="410" y="140" as="targetPoint" />
          </mxGeometry>
        </mxCell>
        <mxCell id="-Q6tTrRomLp7Bxmf9_0d-4" value="&lt;font face=&quot;Times New Roman&quot; style=&quot;font-size: 13px&quot;&gt;1: View recommended exercises() -&amp;gt;&lt;/font&gt;" style="text;html=1;align=center;verticalAlign=middle;resizable=0;points=[];autosize=1;" parent="1" vertex="1">
          <mxGeometry x="188" y="110" width="210" height="20" as="geometry" />
        </mxCell>
        <mxCell id="-Q6tTrRomLp7Bxmf9_0d-5" value="&lt;font style=&quot;font-size: 13px&quot; face=&quot;B Zar&quot;&gt;دوره ها&lt;/font&gt;" style="rounded=0;whiteSpace=wrap;html=1;fillColor=#BFBFBF;" parent="1" vertex="1">
          <mxGeometry x="690" y="310" width="120" height="60" as="geometry" />
        </mxCell>
        <mxCell id="-Q6tTrRomLp7Bxmf9_0d-6" value="" style="endArrow=none;html=1;entryX=1;entryY=0.5;entryDx=0;entryDy=0;strokeColor=#28408E;exitX=0;exitY=0.5;exitDx=0;exitDy=0;" parent="1" source="-Q6tTrRomLp7Bxmf9_0d-5" target="XZJU2B207r0MxDr40ehQ-1" edge="1">
          <mxGeometry width="50" height="50" relative="1" as="geometry">
            <mxPoint x="660" y="340" as="sourcePoint" />
            <mxPoint x="330" y="160" as="targetPoint" />
          </mxGeometry>
        </mxCell>
        <mxCell id="-Q6tTrRomLp7Bxmf9_0d-7" value="&lt;font face=&quot;Times New Roman&quot; style=&quot;font-size: 13px&quot;&gt;3: Extract exercises&lt;br&gt;based on BMI () -&amp;gt;&lt;/font&gt;" style="text;html=1;align=center;verticalAlign=middle;resizable=0;points=[];autosize=1;rotation=0;" parent="1" vertex="1">
          <mxGeometry x="530" y="300" width="120" height="30" as="geometry" />
        </mxCell>
        <mxCell id="XZJU2B207r0MxDr40ehQ-1" value="&lt;font style=&quot;font-size: 13px&quot; face=&quot;B Zar&quot;&gt;کاربر&lt;/font&gt;" style="rounded=0;whiteSpace=wrap;html=1;fillColor=#BFBFBF;" vertex="1" parent="1">
          <mxGeometry x="410" y="310" width="120" height="60" as="geometry" />
        </mxCell>
        <mxCell id="XZJU2B207r0MxDr40ehQ-2" value="" style="endArrow=none;html=1;strokeColor=#28408E;entryX=0.5;entryY=0;entryDx=0;entryDy=0;exitX=0.5;exitY=1;exitDx=0;exitDy=0;" edge="1" parent="1" source="-Q6tTrRomLp7Bxmf9_0d-2" target="XZJU2B207r0MxDr40ehQ-1">
          <mxGeometry width="50" height="50" relative="1" as="geometry">
            <mxPoint x="190" y="150" as="sourcePoint" />
            <mxPoint x="420" y="150" as="targetPoint" />
          </mxGeometry>
        </mxCell>
        <mxCell id="XZJU2B207r0MxDr40ehQ-3" value="&lt;font face=&quot;Times New Roman&quot; style=&quot;font-size: 13px&quot;&gt;2. Extract BMI () -&amp;gt;&lt;/font&gt;" style="text;html=1;align=center;verticalAlign=middle;resizable=0;points=[];autosize=1;strokeColor=none;rotation=90;" vertex="1" parent="1">
          <mxGeometry x="425" y="230" width="120" height="20" as="geometry" />
        </mxCell>
        <mxCell id="XZJU2B207r0MxDr40ehQ-4" value="&lt;font face=&quot;Times New Roman&quot; style=&quot;font-size: 13px&quot;&gt;4: Select exercise () -&amp;gt;&lt;/font&gt;" style="text;html=1;align=center;verticalAlign=middle;resizable=0;points=[];autosize=1;" vertex="1" parent="1">
          <mxGeometry x="191" y="90" width="130" height="20" as="geometry" />
        </mxCell>
        <mxCell id="XZJU2B207r0MxDr40ehQ-5" value="&lt;span style=&quot;color: rgb(0 , 0 , 0) ; font-style: normal ; font-weight: normal ; letter-spacing: normal ; text-align: center ; text-indent: 0px ; text-transform: none ; word-spacing: 0px ; background-color: rgb(248 , 249 , 250) ; text-decoration: none ; display: inline ; float: none&quot;&gt;&lt;font face=&quot;Times New Roman&quot; style=&quot;font-size: 13px&quot;&gt;5: Extract sessions () -&amp;gt;&lt;/font&gt;&lt;/span&gt;" style="text;whiteSpace=wrap;html=1;rotation=0;" vertex="1" parent="1">
          <mxGeometry x="538" y="270" width="160" height="30" as="geometry" />
        </mxCell>
        <mxCell id="XZJU2B207r0MxDr40ehQ-6" value="&lt;font face=&quot;Times New Roman&quot; style=&quot;font-size: 13px&quot;&gt;6: Select register () -&amp;gt;&lt;/font&gt;" style="text;html=1;align=center;verticalAlign=middle;resizable=0;points=[];autosize=1;" vertex="1" parent="1">
          <mxGeometry x="189" y="70" width="130" height="20" as="geometry" />
        </mxCell>
        <mxCell id="XZJU2B207r0MxDr40ehQ-7" value="&lt;span style=&quot;color: rgb(0 , 0 , 0) ; font-style: normal ; font-weight: normal ; letter-spacing: normal ; text-align: center ; text-indent: 0px ; text-transform: none ; word-spacing: 0px ; background-color: rgb(248 , 249 , 250) ; text-decoration: none ; display: inline ; float: none&quot;&gt;&lt;font style=&quot;font-size: 13px&quot; face=&quot;Times New Roman&quot;&gt;7: Save in DB () -&amp;gt;&lt;/font&gt;&lt;/span&gt;" style="text;whiteSpace=wrap;html=1;rotation=0;" vertex="1" parent="1">
          <mxGeometry x="545" y="110" width="170" height="30" as="geometry" />
        </mxCell>
        <mxCell id="XZJU2B207r0MxDr40ehQ-8" value="&lt;font style=&quot;font-size: 13px&quot; face=&quot;B Zar&quot;&gt;تاریخچه&lt;/font&gt;" style="rounded=0;whiteSpace=wrap;html=1;fillColor=#BFBFBF;" vertex="1" parent="1">
          <mxGeometry x="690" y="110" width="120" height="60" as="geometry" />
        </mxCell>
        <mxCell id="XZJU2B207r0MxDr40ehQ-9" value="&lt;span style=&quot;color: rgb(0 , 0 , 0) ; font-style: normal ; font-weight: normal ; letter-spacing: normal ; text-align: center ; text-indent: 0px ; text-transform: none ; word-spacing: 0px ; background-color: rgb(248 , 249 , 250) ; text-decoration: none ; display: inline ; float: none&quot;&gt;&lt;font face=&quot;Times New Roman&quot; style=&quot;font-size: 13px&quot;&gt;9: Save in DB () -&amp;gt;&lt;/font&gt;&lt;/span&gt;" style="text;whiteSpace=wrap;html=1;rotation=0;" vertex="1" parent="1">
          <mxGeometry x="545" y="87" width="170" height="30" as="geometry" />
        </mxCell>
        <mxCell id="XZJU2B207r0MxDr40ehQ-10" value="&lt;font face=&quot;Times New Roman&quot; style=&quot;font-size: 13px&quot;&gt;8: Give rating () -&amp;gt;&lt;/font&gt;" style="text;html=1;align=center;verticalAlign=middle;resizable=0;points=[];autosize=1;" vertex="1" parent="1">
          <mxGeometry x="191" y="50" width="110" height="20" as="geometry" />
        </mxCell>
        <mxCell id="XZJU2B207r0MxDr40ehQ-11" value="" style="endArrow=none;html=1;entryX=1;entryY=0.5;entryDx=0;entryDy=0;strokeColor=#28408E;exitX=0;exitY=0.5;exitDx=0;exitDy=0;" edge="1" parent="1">
          <mxGeometry width="50" height="50" relative="1" as="geometry">
            <mxPoint x="690" y="139.5" as="sourcePoint" />
            <mxPoint x="530" y="139.5" as="targetPoint" />
          </mxGeometry>
        </mxCell>
      </root>
    </mxGraphModel>
  </diagram>
</mxfile>
